<svg width="512" height="512" viewBox="0 0 512 512" fill="none" xmlns="http://www.w3.org/2000/svg" role="img" aria-label="TokGhost icon">
  <defs>
    <linearGradient id="ghostGradF" x1="0" y1="0" x2="0" y2="1">
      <stop offset="0%" stop-color="#7C5CFF"/>
      <stop offset="100%" stop-color="#4B2ED6"/>
    </linearGradient>
    <linearGradient id="playGradF" x1="0" y1="0" x2="1" y2="1">
      <stop offset="0%" stop-color="#00E0C6"/>
      <stop offset="100%" stop-color="#00B3E6"/>
    </linearGradient>
  </defs>

  <rect x="0" y="0" width="512" height="512" rx="120" fill="#14121F"/>

  <!-- Ghost body, scaled + centered -->
  <g transform="translate(106,88) scale(3.57)">
    <path d="M42 16
             C27 16 18 27 18 42
             L18 64
             C18 67 21 68 23 66
             L28 61
             C29.5 59.5 32 59.5 33.5 61
             L37 64.5
             C38.5 66 41 66 42.5 64.5
             L46 61
             C47.5 59.5 50 59.5 51.5 61
             L56 66
             C58 68 61 67 61 64
             L61 42
             C61 27 57 16 42 16 Z"
          fill="url(#ghostGradF)"/>
    <circle cx="34" cy="40" r="4.2" fill="#14121F"/>
    <circle cx="50" cy="40" r="4.2" fill="#14121F"/>
    <path d="M38 48 L52 55 L38 62 Z" fill="url(#playGradF)"/>
  </g>
</svg>
